{"title":"Straight.Outta.Compton.2015.CAM.XviD.AC3-TheMuffinStuffers","uid":12237831,"size":1799574805,"categoryP":"video","categoryS":"movies","magnet":"?xt=urn:btih:f4956108ec6714db2971e8af3c653d0dc4f36701&amp;dn=Straight.Outta.Compton.2015.CAM.XviD.AC3-TheMuffinStuffers&amp;tr=udp%3A%2F%2Ftracker.openbittorrent.com%3A80&amp;tr=udp%3A%2F%2Fopen.demonii.com%3A1337&amp;tr=udp%3A%2F%2Ftracker.coppersurfer.tk%3A6969&amp;tr=udp%3A%2F%2Fexodus.desync.com%3A6969","seeders":0,"leechers":0,"uploader":"TvTeam","files":4,"time":1439698846,"description":"------------------------------------------------------------------------\n\n &lt;a href=&quot; https://www.torrenting.com&quot; rel=&quot;nofollow&quot; target=&quot;_NEW&quot;&gt; https://www.torrenting.com&lt;/a&gt;\n\nSign up is OPEN - for time being. Come and have fun\n\n.......................................................................................................................[img]http://s28.postimg.org/uhbajnib1/0_OTUx_V1_SX214_AL.jpg[/img]\n\nStraight.Outta.Compton.2015.CAM.XviD.AC3-TheMuffinStuffers &lt;a href=&quot;\nhttp://www.imdb.com/title/tt1398426/&quot; rel=&quot;nofollow&quot; target=&quot;_NEW&quot;&gt;\nhttp://www.imdb.com/title/tt1398426/&lt;/a&gt;\n\nGeneral\nComplete name                            : Straight.Outta.Compton.2015.CAM.XviD.AC3-TheMuffinStuffers.avi\nFormat                                   : AVI\nFormat/Info                              : Audio Video Interleave\nFile size                                : 1.62 GiB\nDuration                                 : 2h 21mn\nOverall bit rate                         : 1 642 Kbps\n\nVideo\nID                                       : 0\nFormat                                   : MPEG-4 Visual\nFormat profile                           : Advanced Simple@L5\nFormat settings, BVOP                    : 2\nFormat settings, QPel                    : No\nFormat settings, GMC                     : No warppoints\nFormat settings, Matrix                  : Default (H.263)\nMuxing mode                              : Packed bitstream\nCodec ID                                 : XVID\nCodec ID/Hint                            : XviD\nDuration                                 : 2h 21mn\nBit rate                                 : 1 250 Kbps\nWidth                                    : 720 pixels\nHeight                                   : 272 pixels\nDisplay aspect ratio                     : 2.647\nFrame rate                               : 29.970 fps\nColor space                              : YUV\nChroma subsampling                       : 4:2:0\nBit depth                                : 8 bits\nScan type                                : Progressive\nCompression mode                         : Lossy\nBits/(Pixel*Frame)                       : 0.213\nStream size                              : 1.24 GiB (76%)\nWriting library                          : XviD 73\n\nAudio\nID                                       : 1\nFormat                                   : AC-3\nFormat/Info                              : Audio Coding 3\nMode extension                           : CM (complete main)\nFormat settings, Endianness              : Big\nCodec ID                                 : 2000\nDuration                                 : 2h 21mn\nBit rate mode                            : Constant\nBit rate                                 : 384 Kbps\nChannel(s)                               : 2 channels\nChannel positions                        : Front: L R\nSampling rate                            : 44.1 KHz\nCompression mode                         : Lossy\nStream size                              : 389 MiB (23%)\nAlignment                                : Aligned on interleaves\nInterleave, duration                     : 70 ms (2.09 video frames)\nInterleave, preload duration             : 208 ms\nTitle                                    : Straight Outta Compton 2015_new\n\n[img]http://i.imgur.com/C6BuvcC.jpg[/img]\n[img]http://i.imgur.com/5YpMZNn.jpg[/img]\n[img]http://i.imgur.com/oqkvtpl.jpg[/img]\n[img]http://i.imgur.com/5GyLRJ9.jpg[/img]\n[img]http://i.imgur.com/KJQDYqJ.jpg[/img]\n[img]http://i.imgur.com/I9r9RJ0.jpg[/img]","torrent":{"xt":"urn:btih:f4956108ec6714db2971e8af3c653d0dc4f36701","amp;dn":"Straight.Outta.Compton.2015.CAM.XviD.AC3-TheMuffinStuffers","amp;tr":["udp%3A%2F%2Ftracker.openbittorrent.com%3A80","udp%3A%2F%2Fopen.demonii.com%3A1337","udp%3A%2F%2Ftracker.coppersurfer.tk%3A6969","udp%3A%2F%2Fexodus.desync.com%3A6969"],"infoHash":"f4956108ec6714db2971e8af3c653d0dc4f36701","infoHashBuffer":{"type":"Buffer","data":[244,149,97,8,236,103,20,219,41,113,232,175,60,101,61,13,196,243,103,1]},"announce":[],"urlList":[]}}